<?xml version="1.0" encoding="utf-8"?>
<!-- Generator: Adobe Illustrator 22.0.1, SVG Export Plug-In . SVG Version: 6.00 Build 0)  -->
<svg version="1.1" id="圖層_1" xmlns="http://www.w3.org/2000/svg" xmlns:xlink="http://www.w3.org/1999/xlink" x="0px" y="0px"
	 viewBox="0 0 420 350" style="enable-background:new 0 0 420 350;" xml:space="preserve">
<style type="text/css">
	.st0{fill:#F3E171;stroke:#FFFFFF;stroke-miterlimit:10;}
	.st1{fill:none;stroke:#FFFFFF;stroke-miterlimit:10;}
</style>
<rect x="-5.2" y="-5" class="st0" width="430.4" height="360"/>
<title>Group</title>
<desc>Created with Sketch.</desc>
<polygon class="st1" points="-419.5,12.3 -59.5,-416.7 863.5,357.8 503.5,786.7 "/>
<polygon class="st1" points="-408.2,11.3 -58.5,-405.5 852.2,358.8 502.5,775.5 "/>
<polygon class="st1" points="-396.9,10.3 -57.6,-394.2 841,359.7 501.5,764.2 "/>
<polygon class="st1" points="-385.7,9.3 -56.6,-382.9 829.7,360.7 500.5,752.9 "/>
<polygon class="st1" points="-374.4,8.3 -55.6,-371.7 818.4,361.7 499.6,741.7 "/>
<polygon class="st1" points="-363.1,7.3 -54.6,-360.4 807.1,362.7 498.6,730.4 "/>
<polygon class="st1" points="-351.9,6.3 -53.6,-349.1 795.9,363.7 497.6,719.1 "/>
<polygon class="st1" points="-340.6,5.4 -52.6,-337.9 784.6,364.7 496.6,707.8 "/>
<polygon class="st1" points="-329.3,4.4 -51.6,-326.6 773.3,365.7 495.6,696.6 "/>
<polygon class="st1" points="-318,3.4 -50.7,-315.3 762.1,366.6 494.6,685.3 "/>
<polygon class="st1" points="-306.8,2.4 -49.7,-304 750.8,367.6 493.6,674 "/>
<polygon class="st1" points="-295.5,1.4 -48.7,-292.8 739.5,368.6 492.7,662.8 "/>
<polygon class="st1" points="-284.2,0.4 -47.7,-281.5 728.2,369.6 491.7,651.5 "/>
<polygon class="st1" points="-273,-0.6 -46.7,-270.2 717,370.6 490.7,640.2 "/>
<polygon class="st1" points="-261.7,-1.6 -45.7,-259 705.7,371.6 489.7,628.9 "/>
<polygon class="st1" points="-250.4,-2.5 -44.7,-247.7 694.4,372.6 488.7,617.7 "/>
<polygon class="st1" points="-239.1,-3.5 -43.7,-236.4 683.2,373.5 487.7,606.4 "/>
<polygon class="st1" points="-227.9,-4.5 -42.8,-225.1 671.9,374.5 486.7,595.1 "/>
<polygon class="st1" points="-216.6,-5.5 -41.8,-213.9 660.6,375.5 485.8,583.9 "/>
<polygon class="st1" points="-205.3,-6.5 -40.8,-202.6 649.3,376.5 484.8,572.6 "/>
<polygon class="st1" points="-194.1,-7.5 -39.8,-191.3 638.1,377.5 483.8,561.3 "/>
<polygon class="st1" points="-182.8,-8.5 -38.8,-180.1 626.8,378.5 482.8,550.1 "/>
<polygon class="st1" points="-171.5,-9.4 -37.8,-168.8 615.5,379.5 481.8,538.8 "/>
<polygon class="st1" points="-160.3,-10.4 -36.8,-157.5 604.3,380.4 480.8,527.5 "/>
<polygon class="st1" points="-149,-11.4 -35.9,-146.2 593,381.4 479.8,516.2 "/>
<polygon class="st1" points="-137.7,-12.4 -34.9,-135 581.7,382.4 478.9,505 "/>
<polygon class="st1" points="-126.4,-13.4 -33.9,-123.7 570.4,383.4 477.9,493.7 "/>
<polygon class="st1" points="-115.2,-14.4 -32.9,-112.4 559.2,384.4 476.9,482.4 "/>
<polygon class="st1" points="-103.9,-15.4 -31.9,-101.2 547.9,385.4 475.9,471.2 "/>
<polygon class="st1" points="-92.6,-16.3 -30.9,-89.9 536.6,386.4 474.9,459.9 "/>
<polygon class="st1" points="-81.4,-17.3 -29.9,-78.6 525.4,387.3 473.9,448.6 "/>
<rect x="190" y="-169.4" transform="matrix(0.6428 -0.7661 0.7661 0.6428 -62.4156 236.1571)" class="st1" width="64" height="708.9"/>
<rect x="198" y="-161.4" transform="matrix(0.6428 -0.7661 0.7661 0.6428 -62.4155 236.1568)" class="st1" width="48" height="692.9"/>
<rect x="206" y="-153.4" transform="matrix(0.6428 -0.7661 0.7661 0.6428 -62.4155 236.156)" class="st1" width="32" height="676.9"/>
<rect x="214" y="-145.4" transform="matrix(0.6428 -0.766 0.766 0.6428 -62.4171 236.146)" class="st1" width="16" height="660.9"/>
<line class="st1" x1="-31.1" y1="-27.4" x2="475.1" y2="397.4"/>
</svg>
