<?xml version="1.0" encoding="utf-8"?>
<!-- Generator: Adobe Illustrator 22.0.1, SVG Export Plug-In . SVG Version: 6.00 Build 0)  -->
<svg version="1.1" id="Capa_1" xmlns="http://www.w3.org/2000/svg" xmlns:xlink="http://www.w3.org/1999/xlink" x="0px" y="0px"
	 viewBox="0 0 33 33" style="enable-background:new 0 0 33 33;" xml:space="preserve">
<style type="text/css">
	.st0{fill:#102977;}
</style>
<g>
	<g>
		<path class="st0" d="M16.5,33C7.4,33,0,25.6,0,16.5S7.4,0,16.5,0S33,7.4,33,16.5S25.6,33,16.5,33z M16.5,1C8,1,1,8,1,16.5
			S8,32,16.5,32S32,25,32,16.5S25,1,16.5,1z"/>
		<path class="st0" d="M16.5,26.3c-4.3,0-7.8-3.5-7.8-7.8c0-0.3,0.2-0.5,0.5-0.5h14.6c0.3,0,0.5,0.2,0.5,0.5
			C24.3,22.8,20.8,26.3,16.5,26.3z M9.7,19c0.3,3.5,3.2,6.3,6.8,6.3s6.5-2.8,6.8-6.3H9.7z"/>
		<circle class="st0" cx="11.7" cy="11.9" r="2.1"/>
		<circle class="st0" cx="21.8" cy="11.9" r="2.1"/>
	</g>
	<g>
		<path class="st0" d="M14,25.5c-0.3,0-0.5-0.2-0.5-0.5v-6.5c0-0.3,0.2-0.5,0.5-0.5s0.5,0.2,0.5,0.5V25C14.5,25.3,14.3,25.5,14,25.5
			z"/>
		<path class="st0" d="M19,25.5c-0.3,0-0.5-0.2-0.5-0.5v-6.5c0-0.3,0.2-0.5,0.5-0.5s0.5,0.2,0.5,0.5V25C19.5,25.3,19.3,25.5,19,25.5
			z"/>
	</g>
</g>
</svg>
